<?xml version="1.0" encoding="utf-8" standalone="no"?>
<!DOCTYPE svg PUBLIC "-//W3C//DTD SVG 1.1//EN"
  "http://www.w3.org/Graphics/SVG/1.1/DTD/svg11.dtd">
<svg xmlns:xlink="http://www.w3.org/1999/xlink" width="1080pt" height="1108.8pt" viewBox="0 0 1080 1108.8" xmlns="http://www.w3.org/2000/svg" version="1.1">
 <metadata>
  <rdf:RDF xmlns:dc="http://purl.org/dc/elements/1.1/" xmlns:cc="http://creativecommons.org/ns#" xmlns:rdf="http://www.w3.org/1999/02/22-rdf-syntax-ns#">
   <cc:Work>
    <dc:type rdf:resource="http://purl.org/dc/dcmitype/StillImage"/>
    <dc:date>2026-09-02T11:29:12.875921</dc:date>
    <dc:format>image/svg+xml</dc:format>
    <dc:creator>
     <cc:Agent>
      <dc:title>Matplotlib v3.10.8, https://matplotlib.org/</dc:title>
     </cc:Agent>
    </dc:creator>
   </cc:Work>
  </rdf:RDF>
 </metadata>
 <defs>
  <style type="text/css">*{stroke-linejoin: round; stroke-linecap: butt}</style>
 </defs>
 <g id="figure_1">
  <g id="patch_1">
   <path d="M 0 1108.8 
L 1080 1108.8 
L 1080 0 
L 0 0 
z
" style="fill: #ffffff"/>
  </g>
  <g id="axes_1">
   <g id="patch_2">
    <path d="M 539.179742 836.084065 
Q 532.370233 911.510491 538.263947 985.376627 
" clip-path="url(#p47f31cc471)" style="fill: none; stroke: #9aa0a6; stroke-width: 1.4; stroke-linecap: round"/>
    <path d="M 540.274569 980.400946 
L 538.263947 985.376627 
L 535.489776 980.782721 
z
" clip-path="url(#p47f31cc471)" style="fill: #9aa0a6; stroke: #9aa0a6; stroke-width: 1.4; stroke-linecap: round"/>
   </g>
   <g id="patch_3">
    <path d="M 539.262967 836.092186 
Q 538.110541 852.366405 538.688223 867.076582 
" clip-path="url(#p47f31cc471)" style="fill: none; stroke: #9aa0a6; stroke-width: 1.4; stroke-linecap: round"/>
    <path d="M 540.898019 862.186102 
L 538.688223 867.076582 
L 536.101716 862.374457 
z
" clip-path="url(#p47f31cc471)" style="fill: #9aa0a6; stroke: #9aa0a6; stroke-width: 1.4; stroke-linecap: round"/>
   </g>
   <g id="patch_4">
    <path d="M 539.200615 836.084968 
Q 535.283877 881.938364 538.369458 926.230298 
" clip-path="url(#p47f31cc471)" style="fill: none; stroke: #9aa0a6; stroke-width: 1.4; stroke-linecap: round"/>
    <path d="M 540.430074 921.275112 
L 538.369458 926.230298 
L 535.641679 921.608694 
z
" clip-path="url(#p47f31cc471)" style="fill: #9aa0a6; stroke: #9aa0a6; stroke-width: 1.4; stroke-linecap: round"/>
   </g>
   <g id="patch_5">
    <path d="M 641.372658 771.724669 
Q 596.382078 791.271602 556.368314 816.738681 
" clip-path="url(#p47f31cc471)" style="fill: none; stroke: #9aa0a6; stroke-width: 1.4; stroke-linecap: round"/>
    <path d="M 561.706353 816.186108 
L 556.368314 816.738681 
L 559.129079 812.136705 
z
" clip-path="url(#p47f31cc471)" style="fill: #9aa0a6; stroke: #9aa0a6; stroke-width: 1.4; stroke-linecap: round"/>
   </g>
   <g id="patch_6">
    <path d="M 750.711501 712.590785 
Q 705.720921 732.137717 665.707157 757.604796 
" clip-path="url(#p47f31cc471)" style="fill: none; stroke: #9aa0a6; stroke-width: 1.4; stroke-linecap: round"/>
    <path d="M 671.045196 757.052223 
L 665.707157 757.604796 
L 668.467922 753.002821 
z
" clip-path="url(#p47f31cc471)" style="fill: #9aa0a6; stroke: #9aa0a6; stroke-width: 1.4; stroke-linecap: round"/>
   </g>
   <g id="patch_7">
    <path d="M 548.102145 653.110499 
Q 642.217969 688.131414 739.402686 705.828463 
" clip-path="url(#p47f31cc471)" style="fill: none; stroke: #9aa0a6; stroke-width: 1.4; stroke-linecap: round"/>
    <path d="M 735.110305 702.607366 
L 739.402686 705.828463 
L 734.25038 707.32971 
z
" clip-path="url(#p47f31cc471)" style="fill: #9aa0a6; stroke: #9aa0a6; stroke-width: 1.4; stroke-linecap: round"/>
   </g>
   <g id="patch_8">
    <path d="M 539.262967 658.690533 
Q 538.110541 674.964752 538.688223 689.674929 
" clip-path="url(#p47f31cc471)" style="fill: none; stroke: #9aa0a6; stroke-width: 1.4; stroke-linecap: round"/>
    <path d="M 540.898019 684.784449 
L 538.688223 689.674929 
L 536.101716 684.972804 
z
" clip-path="url(#p47f31cc471)" style="fill: #9aa0a6; stroke: #9aa0a6; stroke-width: 1.4; stroke-linecap: round"/>
   </g>
   <g id="patch_9">
    <path d="M 548.425564 652.052539 
Q 751.285925 699.592455 957.806206 708.430591 
" clip-path="url(#p47f31cc471)" style="fill: none; stroke: #9aa0a6; stroke-width: 1.4; stroke-linecap: round"/>
    <path d="M 953.113211 705.827555 
L 957.806206 708.430591 
L 952.90798 710.623166 
z
" clip-path="url(#p47f31cc471)" style="fill: #9aa0a6; stroke: #9aa0a6; stroke-width: 1.4; stroke-linecap: round"/>
   </g>
   <g id="patch_10">
    <path d="M 531.465076 651.510079 
Q 432.52592 668.694265 339.666963 702.388014 
" clip-path="url(#p47f31cc471)" style="fill: none; stroke: #9aa0a6; stroke-width: 1.4; stroke-linecap: round"/>
    <path d="M 344.997725 703.006862 
L 339.666963 702.388014 
L 343.360498 698.494713 
z
" clip-path="url(#p47f31cc471)" style="fill: #9aa0a6; stroke: #9aa0a6; stroke-width: 1.4; stroke-linecap: round"/>
   </g>
   <g id="patch_11">
    <path d="M 531.348043 650.378129 
Q 323.146826 658.416969 121.694784 704.739899 
" clip-path="url(#p47f31cc471)" style="fill: none; stroke: #9aa0a6; stroke-width: 1.4; stroke-linecap: round"/>
    <path d="M 126.910537 706.003194 
L 121.694784 704.739899 
L 125.834872 701.325273 
z
" clip-path="url(#p47f31cc471)" style="fill: #9aa0a6; stroke: #9aa0a6; stroke-width: 1.4; stroke-linecap: round"/>
   </g>
   <g id="patch_12">
    <path d="M 539.262967 599.556649 
Q 538.110541 615.830868 538.688223 630.541045 
" clip-path="url(#p47f31cc471)" style="fill: none; stroke: #9aa0a6; stroke-width: 1.4; stroke-linecap: round"/>
    <path d="M 540.898019 625.650565 
L 538.688223 630.541045 
L 536.101716 625.83892 
z
" clip-path="url(#p47f31cc471)" style="fill: #9aa0a6; stroke: #9aa0a6; stroke-width: 1.4; stroke-linecap: round"/>
   </g>
   <g id="patch_13">
    <path d="M 539.262967 540.422765 
Q 538.110541 556.696984 538.688223 571.407161 
" clip-path="url(#p47f31cc471)" style="fill: none; stroke: #9aa0a6; stroke-width: 1.4; stroke-linecap: round"/>
    <path d="M 540.898019 566.51668 
L 538.688223 571.407161 
L 536.101716 566.705035 
z
" clip-path="url(#p47f31cc471)" style="fill: #9aa0a6; stroke: #9aa0a6; stroke-width: 1.4; stroke-linecap: round"/>
   </g>
   <g id="patch_14">
    <path d="M 539.262967 481.28888 
Q 538.110541 497.563099 538.688223 512.273276 
" clip-path="url(#p47f31cc471)" style="fill: none; stroke: #9aa0a6; stroke-width: 1.4; stroke-linecap: round"/>
    <path d="M 540.898019 507.382796 
L 538.688223 512.273276 
L 536.101716 507.571151 
z
" clip-path="url(#p47f31cc471)" style="fill: #9aa0a6; stroke: #9aa0a6; stroke-width: 1.4; stroke-linecap: round"/>
   </g>
   <g id="patch_15">
    <path d="M 539.262967 422.154996 
Q 538.110541 438.429215 538.688223 453.139392 
" clip-path="url(#p47f31cc471)" style="fill: none; stroke: #9aa0a6; stroke-width: 1.4; stroke-linecap: round"/>
    <path d="M 540.898019 448.248912 
L 538.688223 453.139392 
L 536.101716 448.437267 
z
" clip-path="url(#p47f31cc471)" style="fill: #9aa0a6; stroke: #9aa0a6; stroke-width: 1.4; stroke-linecap: round"/>
   </g>
   <g id="patch_16">
    <path d="M 539.262967 363.021112 
Q 538.110541 379.295331 538.688223 394.005508 
" clip-path="url(#p47f31cc471)" style="fill: none; stroke: #9aa0a6; stroke-width: 1.4; stroke-linecap: round"/>
    <path d="M 540.898019 389.115027 
L 538.688223 394.005508 
L 536.101716 389.303382 
z
" clip-path="url(#p47f31cc471)" style="fill: #9aa0a6; stroke: #9aa0a6; stroke-width: 1.4; stroke-linecap: round"/>
   </g>
   <g id="patch_17">
    <path d="M 539.262967 303.887228 
Q 538.110541 320.161447 538.688223 334.871624 
" clip-path="url(#p47f31cc471)" style="fill: none; stroke: #9aa0a6; stroke-width: 1.4; stroke-linecap: round"/>
    <path d="M 540.898019 329.981143 
L 538.688223 334.871624 
L 536.101716 330.169498 
z
" clip-path="url(#p47f31cc471)" style="fill: #9aa0a6; stroke: #9aa0a6; stroke-width: 1.4; stroke-linecap: round"/>
   </g>
   <g id="patch_18">
    <path d="M 539.262967 244.753343 
Q 538.110541 261.027562 538.688223 275.737739 
" clip-path="url(#p47f31cc471)" style="fill: none; stroke: #9aa0a6; stroke-width: 1.4; stroke-linecap: round"/>
    <path d="M 540.898019 270.847259 
L 538.688223 275.737739 
L 536.101716 271.035614 
z
" clip-path="url(#p47f31cc471)" style="fill: #9aa0a6; stroke: #9aa0a6; stroke-width: 1.4; stroke-linecap: round"/>
   </g>
   <g id="patch_19">
    <path d="M 539.262967 185.619459 
Q 538.110541 201.893678 538.688223 216.603855 
" clip-path="url(#p47f31cc471)" style="fill: none; stroke: #9aa0a6; stroke-width: 1.4; stroke-linecap: round"/>
    <path d="M 540.898019 211.713374 
L 538.688223 216.603855 
L 536.101716 211.90173 
z
" clip-path="url(#p47f31cc471)" style="fill: #9aa0a6; stroke: #9aa0a6; stroke-width: 1.4; stroke-linecap: round"/>
   </g>
   <g id="patch_20">
    <path d="M 539.262967 126.485575 
Q 538.110541 142.759794 538.688223 157.469971 
" clip-path="url(#p47f31cc471)" style="fill: none; stroke: #9aa0a6; stroke-width: 1.4; stroke-linecap: round"/>
    <path d="M 540.898019 152.57949 
L 538.688223 157.469971 
L 536.101716 152.767845 
z
" clip-path="url(#p47f31cc471)" style="fill: #9aa0a6; stroke: #9aa0a6; stroke-width: 1.4; stroke-linecap: round"/>
   </g>
   <g id="patch_21">
    <path d="M 547.202711 714.002453 
Q 588.188508 740.954248 631.404481 760.500428 
" clip-path="url(#p47f31cc471)" style="fill: none; stroke: #9aa0a6; stroke-width: 1.4; stroke-linecap: round"/>
    <path d="M 628.020053 756.335617 
L 631.404481 760.500428 
L 626.041975 760.709083 
z
" clip-path="url(#p47f31cc471)" style="fill: #9aa0a6; stroke: #9aa0a6; stroke-width: 1.4; stroke-linecap: round"/>
   </g>
   <g id="patch_22">
    <path d="M 968.725227 709.897486 
Q 815.194748 722.795908 668.183127 763.067051 
" clip-path="url(#p47f31cc471)" style="fill: none; stroke: #9aa0a6; stroke-width: 1.4; stroke-linecap: round"/>
    <path d="M 673.446652 764.113622 
L 668.183127 763.067051 
L 672.178499 759.484174 
z
" clip-path="url(#p47f31cc471)" style="fill: #9aa0a6; stroke: #9aa0a6; stroke-width: 1.4; stroke-linecap: round"/>
   </g>
   <g id="patch_23">
    <path d="M 539.200615 895.218852 
Q 535.283877 941.072249 538.369458 985.364182 
" clip-path="url(#p47f31cc471)" style="fill: none; stroke: #9aa0a6; stroke-width: 1.4; stroke-linecap: round"/>
    <path d="M 540.430074 980.408996 
L 538.369458 985.364182 
L 535.641679 980.742578 
z
" clip-path="url(#p47f31cc471)" style="fill: #9aa0a6; stroke: #9aa0a6; stroke-width: 1.4; stroke-linecap: round"/>
   </g>
   <g id="patch_24">
    <path d="M 539.262967 895.226071 
Q 538.110541 911.50029 538.688223 926.210467 
" clip-path="url(#p47f31cc471)" style="fill: none; stroke: #9aa0a6; stroke-width: 1.4; stroke-linecap: round"/>
    <path d="M 540.898019 921.319986 
L 538.688223 926.210467 
L 536.101716 921.508341 
z
" clip-path="url(#p47f31cc471)" style="fill: #9aa0a6; stroke: #9aa0a6; stroke-width: 1.4; stroke-linecap: round"/>
   </g>
   <g id="patch_25">
    <path d="M 539.262967 954.359955 
Q 538.110541 970.634174 538.688223 985.344351 
" clip-path="url(#p47f31cc471)" style="fill: none; stroke: #9aa0a6; stroke-width: 1.4; stroke-linecap: round"/>
    <path d="M 540.898019 980.45387 
L 538.688223 985.344351 
L 536.101716 980.642225 
z
" clip-path="url(#p47f31cc471)" style="fill: #9aa0a6; stroke: #9aa0a6; stroke-width: 1.4; stroke-linecap: round"/>
   </g>
   <g id="patch_26">
    <path d="M 433.520271 776.499414 
Q 472.702496 887.308839 530.189618 987.938795 
" clip-path="url(#p47f31cc471)" style="fill: none; stroke: #9aa0a6; stroke-width: 1.4; stroke-linecap: round"/>
    <path d="M 529.892565 982.58046 
L 530.189618 987.938795 
L 525.724718 984.961436 
z
" clip-path="url(#p47f31cc471)" style="fill: #9aa0a6; stroke: #9aa0a6; stroke-width: 1.4; stroke-linecap: round"/>
   </g>
   <g id="patch_27">
    <path d="M 328.525025 714.002453 
Q 369.510822 740.954248 412.726795 760.500428 
" clip-path="url(#p47f31cc471)" style="fill: none; stroke: #9aa0a6; stroke-width: 1.4; stroke-linecap: round"/>
    <path d="M 409.342367 756.335617 
L 412.726795 760.500428 
L 407.36429 760.709083 
z
" clip-path="url(#p47f31cc471)" style="fill: #9aa0a6; stroke: #9aa0a6; stroke-width: 1.4; stroke-linecap: round"/>
   </g>
   <g id="patch_28">
    <path d="M 109.307314 714.721906 
Q 303.411272 875.216622 522.812081 995.509433 
" clip-path="url(#p47f31cc471)" style="fill: none; stroke: #9aa0a6; stroke-width: 1.4; stroke-linecap: round"/>
    <path d="M 519.757012 991.097341 
L 522.812081 995.509433 
L 517.449366 995.306233 
z
" clip-path="url(#p47f31cc471)" style="fill: #9aa0a6; stroke: #9aa0a6; stroke-width: 1.4; stroke-linecap: round"/>
   </g>
   <g id="text_1">
    <g id="patch_29">
     <path d="M 503.218242 125.062274 
L 576.781758 125.062274 
Q 579.756758 125.062274 579.756758 122.087274 
L 579.756758 113.624462 
Q 579.756758 110.649462 576.781758 110.649462 
L 503.218242 110.649462 
Q 500.243242 110.649462 500.243242 113.624462 
L 500.243242 122.087274 
Q 500.243242 125.062274 503.218242 125.062274 
z
" style="fill: #eef3ff; stroke: #3c6dd9; stroke-width: 1.2; stroke-linejoin: miter"/>
    </g>
    <!-- build_editor_data -->
    <g transform="translate(503.218242 120.083133) scale(0.085 -0.085)">
     <defs>
      <path id="DejaVuSans-62" d="M 3116 1747 
Q 3116 2381 2855 2742 
Q 2594 3103 2138 3103 
Q 1681 3103 1420 2742 
Q 1159 2381 1159 1747 
Q 1159 1113 1420 752 
Q 1681 391 2138 391 
Q 2594 391 2855 752 
Q 3116 1113 3116 1747 
z
M 1159 2969 
Q 1341 3281 1617 3432 
Q 1894 3584 2278 3584 
Q 2916 3584 3314 3078 
Q 3713 2572 3713 1747 
Q 3713 922 3314 415 
Q 2916 -91 2278 -91 
Q 1894 -91 1617 61 
Q 1341 213 1159 525 
L 1159 0 
L 581 0 
L 581 4863 
L 1159 4863 
L 1159 2969 
z
" transform="scale(0.015625)"/>
      <path id="DejaVuSans-75" d="M 544 1381 
L 544 3500 
L 1119 3500 
L 1119 1403 
Q 1119 906 1312 657 
Q 1506 409 1894 409 
Q 2359 409 2629 706 
Q 2900 1003 2900 1516 
L 2900 3500 
L 3475 3500 
L 3475 0 
L 2900 0 
L 2900 538 
Q 2691 219 2414 64 
Q 2138 -91 1772 -91 
Q 1169 -91 856 284 
Q 544 659 544 1381 
z
M 1991 3584 
L 1991 3584 
z
" transform="scale(0.015625)"/>
      <path id="DejaVuSans-69" d="M 603 3500 
L 1178 3500 
L 1178 0 
L 603 0 
L 603 3500 
z
M 603 4863 
L 1178 4863 
L 1178 4134 
L 603 4134 
L 603 4863 
z
" transform="scale(0.015625)"/>
      <path id="DejaVuSans-6c" d="M 603 4863 
L 1178 4863 
L 1178 0 
L 603 0 
L 603 4863 
z
" transform="scale(0.015625)"/>
      <path id="DejaVuSans-64" d="M 2906 2969 
L 2906 4863 
L 3481 4863 
L 3481 0 
L 2906 0 
L 2906 525 
Q 2725 213 2448 61 
Q 2172 -91 1784 -91 
Q 1150 -91 751 415 
Q 353 922 353 1747 
Q 353 2572 751 3078 
Q 1150 3584 1784 3584 
Q 2172 3584 2448 3432 
Q 2725 3281 2906 2969 
z
M 947 1747 
Q 947 1113 1208 752 
Q 1469 391 1925 391 
Q 2381 391 2643 752 
Q 2906 1113 2906 1747 
Q 2906 2381 2643 2742 
Q 2381 3103 1925 3103 
Q 1469 3103 1208 2742 
Q 947 2381 947 1747 
z
" transform="scale(0.015625)"/>
      <path id="DejaVuSans-5f" d="M 3263 -1063 
L 3263 -1509 
L -63 -1509 
L -63 -1063 
L 3263 -1063 
z
" transform="scale(0.015625)"/>
      <path id="DejaVuSans-65" d="M 3597 1894 
L 3597 1613 
L 953 1613 
Q 991 1019 1311 708 
Q 1631 397 2203 397 
Q 2534 397 2845 478 
Q 3156 559 3463 722 
L 3463 178 
Q 3153 47 2828 -22 
Q 2503 -91 2169 -91 
Q 1331 -91 842 396 
Q 353 884 353 1716 
Q 353 2575 817 3079 
Q 1281 3584 2069 3584 
Q 2775 3584 3186 3129 
Q 3597 2675 3597 1894 
z
M 3022 2063 
Q 3016 2534 2758 2815 
Q 2500 3097 2075 3097 
Q 1594 3097 1305 2825 
Q 1016 2553 972 2059 
L 3022 2063 
z
" transform="scale(0.015625)"/>
      <path id="DejaVuSans-74" d="M 1172 4494 
L 1172 3500 
L 2356 3500 
L 2356 3053 
L 1172 3053 
L 1172 1153 
Q 1172 725 1289 603 
Q 1406 481 1766 481 
L 2356 481 
L 2356 0 
L 1766 0 
Q 1100 0 847 248 
Q 594 497 594 1153 
L 594 3053 
L 172 3053 
L 172 3500 
L 594 3500 
L 594 4494 
L 1172 4494 
z
" transform="scale(0.015625)"/>
      <path id="DejaVuSans-6f" d="M 1959 3097 
Q 1497 3097 1228 2736 
Q 959 2375 959 1747 
Q 959 1119 1226 758 
Q 1494 397 1959 397 
Q 2419 397 2687 759 
Q 2956 1122 2956 1747 
Q 2956 2369 2687 2733 
Q 2419 3097 1959 3097 
z
M 1959 3584 
Q 2709 3584 3137 3096 
Q 3566 2609 3566 1747 
Q 3566 888 3137 398 
Q 2709 -91 1959 -91 
Q 1206 -91 779 398 
Q 353 888 353 1747 
Q 353 2609 779 3096 
Q 1206 3584 1959 3584 
z
" transform="scale(0.015625)"/>
      <path id="DejaVuSans-72" d="M 2631 2963 
Q 2534 3019 2420 3045 
Q 2306 3072 2169 3072 
Q 1681 3072 1420 2755 
Q 1159 2438 1159 1844 
L 1159 0 
L 581 0 
L 581 3500 
L 1159 3500 
L 1159 2956 
Q 1341 3275 1631 3429 
Q 1922 3584 2338 3584 
Q 2397 3584 2469 3576 
Q 2541 3569 2628 3553 
L 2631 2963 
z
" transform="scale(0.015625)"/>
      <path id="DejaVuSans-61" d="M 2194 1759 
Q 1497 1759 1228 1600 
Q 959 1441 959 1056 
Q 959 750 1161 570 
Q 1363 391 1709 391 
Q 2188 391 2477 730 
Q 2766 1069 2766 1631 
L 2766 1759 
L 2194 1759 
z
M 3341 1997 
L 3341 0 
L 2766 0 
L 2766 531 
Q 2569 213 2275 61 
Q 1981 -91 1556 -91 
Q 1019 -91 701 211 
Q 384 513 384 1019 
Q 384 1609 779 1909 
Q 1175 2209 1959 2209 
L 2766 2209 
L 2766 2266 
Q 2766 2663 2505 2880 
Q 2244 3097 1772 3097 
Q 1472 3097 1187 3025 
Q 903 2953 641 2809 
L 641 3341 
Q 956 3463 1253 3523 
Q 1550 3584 1831 3584 
Q 2591 3584 2966 3190 
Q 3341 2797 3341 1997 
z
" transform="scale(0.015625)"/>
     </defs>
     <use xlink:href="#DejaVuSans-62"/>
     <use xlink:href="#DejaVuSans-75" transform="translate(63.476562 0)"/>
     <use xlink:href="#DejaVuSans-69" transform="translate(126.855469 0)"/>
     <use xlink:href="#DejaVuSans-6c" transform="translate(154.638672 0)"/>
     <use xlink:href="#DejaVuSans-64" transform="translate(182.421875 0)"/>
     <use xlink:href="#DejaVuSans-5f" transform="translate(245.898438 0)"/>
     <use xlink:href="#DejaVuSans-65" transform="translate(295.898438 0)"/>
     <use xlink:href="#DejaVuSans-64" transform="translate(357.421875 0)"/>
     <use xlink:href="#DejaVuSans-69" transform="translate(420.898438 0)"/>
     <use xlink:href="#DejaVuSans-74" transform="translate(448.681641 0)"/>
     <use xlink:href="#DejaVuSans-6f" transform="translate(487.890625 0)"/>
     <use xlink:href="#DejaVuSans-72" transform="translate(549.072266 0)"/>
     <use xlink:href="#DejaVuSans-5f" transform="translate(590.185547 0)"/>
     <use xlink:href="#DejaVuSans-64" transform="translate(640.185547 0)"/>
     <use xlink:href="#DejaVuSans-61" transform="translate(703.662109 0)"/>
     <use xlink:href="#DejaVuSans-74" transform="translate(764.941406 0)"/>
     <use xlink:href="#DejaVuSans-61" transform="translate(804.150391 0)"/>
    </g>
   </g>
   <g id="text_2">
    <g id="patch_30">
     <path d="M 497.448867 184.196158 
L 582.551133 184.196158 
Q 585.526133 184.196158 585.526133 181.221158 
L 585.526133 172.758346 
Q 585.526133 169.783346 582.551133 169.783346 
L 497.448867 169.783346 
Q 494.473867 169.783346 494.473867 172.758346 
L 494.473867 181.221158 
Q 494.473867 184.196158 497.448867 184.196158 
z
" style="fill: #eef3ff; stroke: #3c6dd9; stroke-width: 1.2; stroke-linejoin: miter"/>
    </g>
    <!-- apply_disclosure_v1 -->
    <g transform="translate(497.448867 179.217018) scale(0.085 -0.085)">
     <defs>
      <path id="DejaVuSans-70" d="M 1159 525 
L 1159 -1331 
L 581 -1331 
L 581 3500 
L 1159 3500 
L 1159 2969 
Q 1341 3281 1617 3432 
Q 1894 3584 2278 3584 
Q 2916 3584 3314 3078 
Q 3713 2572 3713 1747 
Q 3713 922 3314 415 
Q 2916 -91 2278 -91 
Q 1894 -91 1617 61 
Q 1341 213 1159 525 
z
M 3116 1747 
Q 3116 2381 2855 2742 
Q 2594 3103 2138 3103 
Q 1681 3103 1420 2742 
Q 1159 2381 1159 1747 
Q 1159 1113 1420 752 
Q 1681 391 2138 391 
Q 2594 391 2855 752 
Q 3116 1113 3116 1747 
z
" transform="scale(0.015625)"/>
      <path id="DejaVuSans-79" d="M 2059 -325 
Q 1816 -950 1584 -1140 
Q 1353 -1331 966 -1331 
L 506 -1331 
L 506 -850 
L 844 -850 
Q 1081 -850 1212 -737 
Q 1344 -625 1503 -206 
L 1606 56 
L 191 3500 
L 800 3500 
L 1894 763 
L 2988 3500 
L 3597 3500 
L 2059 -325 
z
" transform="scale(0.015625)"/>
      <path id="DejaVuSans-73" d="M 2834 3397 
L 2834 2853 
Q 2591 2978 2328 3040 
Q 2066 3103 1784 3103 
Q 1356 3103 1142 2972 
Q 928 2841 928 2578 
Q 928 2378 1081 2264 
Q 1234 2150 1697 2047 
L 1894 2003 
Q 2506 1872 2764 1633 
Q 3022 1394 3022 966 
Q 3022 478 2636 193 
Q 2250 -91 1575 -91 
Q 1294 -91 989 -36 
Q 684 19 347 128 
L 347 722 
Q 666 556 975 473 
Q 1284 391 1588 391 
Q 1994 391 2212 530 
Q 2431 669 2431 922 
Q 2431 1156 2273 1281 
Q 2116 1406 1581 1522 
L 1381 1569 
Q 847 1681 609 1914 
Q 372 2147 372 2553 
Q 372 3047 722 3315 
Q 1072 3584 1716 3584 
Q 2034 3584 2315 3537 
Q 2597 3491 2834 3397 
z
" transform="scale(0.015625)"/>
      <path id="DejaVuSans-63" d="M 3122 3366 
L 3122 2828 
Q 2878 2963 2633 3030 
Q 2388 3097 2138 3097 
Q 1578 3097 1268 2742 
Q 959 2388 959 1747 
Q 959 1106 1268 751 
Q 1578 397 2138 397 
Q 2388 397 2633 464 
Q 2878 531 3122 666 
L 3122 134 
Q 2881 22 2623 -34 
Q 2366 -91 2075 -91 
Q 1284 -91 818 406 
Q 353 903 353 1747 
Q 353 2603 823 3093 
Q 1294 3584 2113 3584 
Q 2378 3584 2631 3529 
Q 2884 3475 3122 3366 
z
" transform="scale(0.015625)"/>
      <path id="DejaVuSans-76" d="M 191 3500 
L 800 3500 
L 1894 563 
L 2988 3500 
L 3597 3500 
L 2284 0 
L 1503 0 
L 191 3500 
z
" transform="scale(0.015625)"/>
      <path id="DejaVuSans-31" d="M 794 531 
L 1825 531 
L 1825 4091 
L 703 3866 
L 703 4441 
L 1819 4666 
L 2450 4666 
L 2450 531 
L 3481 531 
L 3481 0 
L 794 0 
L 794 531 
z
" transform="scale(0.015625)"/>
     </defs>
     <use xlink:href="#DejaVuSans-61"/>
     <use xlink:href="#DejaVuSans-70" transform="translate(61.279297 0)"/>
     <use xlink:href="#DejaVuSans-70" transform="translate(124.755859 0)"/>
     <use xlink:href="#DejaVuSans-6c" transform="translate(188.232422 0)"/>
     <use xlink:href="#DejaVuSans-79" transform="translate(216.015625 0)"/>
     <use xlink:href="#DejaVuSans-5f" transform="translate(275.195312 0)"/>
     <use xlink:href="#DejaVuSans-64" transform="translate(325.195312 0)"/>
     <use xlink:href="#DejaVuSans-69" transform="translate(388.671875 0)"/>
     <use xlink:href="#DejaVuSans-73" transform="translate(416.455078 0)"/>
     <use xlink:href="#DejaVuSans-63" transform="translate(468.554688 0)"/>
     <use xlink:href="#DejaVuSans-6c" transform="translate(523.535156 0)"/>
     <use xlink:href="#DejaVuSans-6f" transform="translate(551.318359 0)"/>
     <use xlink:href="#DejaVuSans-73" transform="translate(612.5 0)"/>
     <use xlink:href="#DejaVuSans-75" transform="translate(664.599609 0)"/>
     <use xlink:href="#DejaVuSans-72" transform="translate(727.978516 0)"/>
     <use xlink:href="#DejaVuSans-65" transform="translate(766.841797 0)"/>
     <use xlink:href="#DejaVuSans-5f" transform="translate(828.365234 0)"/>
     <use xlink:href="#DejaVuSans-76" transform="translate(878.365234 0)"/>
     <use xlink:href="#DejaVuSans-31" transform="translate(937.544922 0)"/>
    </g>
   </g>
   <g id="text_3">
    <g id="patch_31">
     <path d="M 497.448867 243.330043 
L 582.551133 243.330043 
Q 585.526133 243.330043 585.526133 240.355043 
L 585.526133 231.89223 
Q 585.526133 228.91723 582.551133 228.91723 
L 497.448867 228.91723 
Q 494.473867 228.91723 494.473867 231.89223 
L 494.473867 240.355043 
Q 494.473867 243.330043 497.448867 243.330043 
z
" style="fill: #eef3ff; stroke: #3c6dd9; stroke-width: 1.2; stroke-linejoin: miter"/>
    </g>
    <!-- apply_disclosure_v2 -->
    <g transform="translate(497.448867 238.350902) scale(0.085 -0.085)">
     <defs>
      <path id="DejaVuSans-32" d="M 1228 531 
L 3431 531 
L 3431 0 
L 469 0 
L 469 531 
Q 828 903 1448 1529 
Q 2069 2156 2228 2338 
Q 2531 2678 2651 2914 
Q 2772 3150 2772 3378 
Q 2772 3750 2511 3984 
Q 2250 4219 1831 4219 
Q 1534 4219 1204 4116 
Q 875 4013 500 3803 
L 500 4441 
Q 881 4594 1212 4672 
Q 1544 4750 1819 4750 
Q 2544 4750 2975 4387 
Q 3406 4025 3406 3419 
Q 3406 3131 3298 2873 
Q 3191 2616 2906 2266 
Q 2828 2175 2409 1742 
Q 1991 1309 1228 531 
z
" transform="scale(0.015625)"/>
     </defs>
     <use xlink:href="#DejaVuSans-61"/>
     <use xlink:href="#DejaVuSans-70" transform="translate(61.279297 0)"/>
     <use xlink:href="#DejaVuSans-70" transform="translate(124.755859 0)"/>
     <use xlink:href="#DejaVuSans-6c" transform="translate(188.232422 0)"/>
     <use xlink:href="#DejaVuSans-79" transform="translate(216.015625 0)"/>
     <use xlink:href="#DejaVuSans-5f" transform="translate(275.195312 0)"/>
     <use xlink:href="#DejaVuSans-64" transform="translate(325.195312 0)"/>
     <use xlink:href="#DejaVuSans-69" transform="translate(388.671875 0)"/>
     <use xlink:href="#DejaVuSans-73" transform="translate(416.455078 0)"/>
     <use xlink:href="#DejaVuSans-63" transform="translate(468.554688 0)"/>
     <use xlink:href="#DejaVuSans-6c" transform="translate(523.535156 0)"/>
     <use xlink:href="#DejaVuSans-6f" transform="translate(551.318359 0)"/>
     <use xlink:href="#DejaVuSans-73" transform="translate(612.5 0)"/>
     <use xlink:href="#DejaVuSans-75" transform="translate(664.599609 0)"/>
     <use xlink:href="#DejaVuSans-72" transform="translate(727.978516 0)"/>
     <use xlink:href="#DejaVuSans-65" transform="translate(766.841797 0)"/>
     <use xlink:href="#DejaVuSans-5f" transform="translate(828.365234 0)"/>
     <use xlink:href="#DejaVuSans-76" transform="translate(878.365234 0)"/>
     <use xlink:href="#DejaVuSans-32" transform="translate(937.544922 0)"/>
    </g>
   </g>
   <g id="text_4">
    <g id="patch_32">
     <path d="M 505.263555 302.463927 
L 574.736445 302.463927 
Q 577.711445 302.463927 577.711445 299.488927 
L 577.711445 291.026114 
Q 577.711445 288.051114 574.736445 288.051114 
L 505.263555 288.051114 
Q 502.288555 288.051114 502.288555 291.026114 
L 502.288555 299.488927 
Q 502.288555 302.463927 505.263555 302.463927 
z
" style="fill: #eef3ff; stroke: #3c6dd9; stroke-width: 1.2; stroke-linejoin: miter"/>
    </g>
    <!-- route_disclosure -->
    <g transform="translate(505.263555 297.484786) scale(0.085 -0.085)">
     <use xlink:href="#DejaVuSans-72"/>
     <use xlink:href="#DejaVuSans-6f" transform="translate(38.863281 0)"/>
     <use xlink:href="#DejaVuSans-75" transform="translate(100.044922 0)"/>
     <use xlink:href="#DejaVuSans-74" transform="translate(163.423828 0)"/>
     <use xlink:href="#DejaVuSans-65" transform="translate(202.632812 0)"/>
     <use xlink:href="#DejaVuSans-5f" transform="translate(264.15625 0)"/>
     <use xlink:href="#DejaVuSans-64" transform="translate(314.15625 0)"/>
     <use xlink:href="#DejaVuSans-69" transform="translate(377.632812 0)"/>
     <use xlink:href="#DejaVuSans-73" transform="translate(405.416016 0)"/>
     <use xlink:href="#DejaVuSans-63" transform="translate(457.515625 0)"/>
     <use xlink:href="#DejaVuSans-6c" transform="translate(512.496094 0)"/>
     <use xlink:href="#DejaVuSans-6f" transform="translate(540.279297 0)"/>
     <use xlink:href="#DejaVuSans-73" transform="translate(601.460938 0)"/>
     <use xlink:href="#DejaVuSans-75" transform="translate(653.560547 0)"/>
     <use xlink:href="#DejaVuSans-72" transform="translate(716.939453 0)"/>
     <use xlink:href="#DejaVuSans-65" transform="translate(755.802734 0)"/>
    </g>
   </g>
   <g id="text_5">
    <g id="patch_33">
     <path d="M 499.617695 361.597811 
L 580.382305 361.597811 
Q 583.357305 361.597811 583.357305 358.622811 
L 583.357305 350.159999 
Q 583.357305 347.184999 580.382305 347.184999 
L 499.617695 347.184999 
Q 496.642695 347.184999 496.642695 350.159999 
L 496.642695 358.622811 
Q 496.642695 361.597811 499.617695 361.597811 
z
" style="fill: #eef3ff; stroke: #3c6dd9; stroke-width: 1.2; stroke-linejoin: miter"/>
    </g>
    <!-- fragment_recovery -->
    <g transform="translate(499.617695 356.618671) scale(0.085 -0.085)">
     <defs>
      <path id="DejaVuSans-66" d="M 2375 4863 
L 2375 4384 
L 1825 4384 
Q 1516 4384 1395 4259 
Q 1275 4134 1275 3809 
L 1275 3500 
L 2222 3500 
L 2222 3053 
L 1275 3053 
L 1275 0 
L 697 0 
L 697 3053 
L 147 3053 
L 147 3500 
L 697 3500 
L 697 3744 
Q 697 4328 969 4595 
Q 1241 4863 1831 4863 
L 2375 4863 
z
" transform="scale(0.015625)"/>
      <path id="DejaVuSans-67" d="M 2906 1791 
Q 2906 2416 2648 2759 
Q 2391 3103 1925 3103 
Q 1463 3103 1205 2759 
Q 947 2416 947 1791 
Q 947 1169 1205 825 
Q 1463 481 1925 481 
Q 2391 481 2648 825 
Q 2906 1169 2906 1791 
z
M 3481 434 
Q 3481 -459 3084 -895 
Q 2688 -1331 1869 -1331 
Q 1566 -1331 1297 -1286 
Q 1028 -1241 775 -1147 
L 775 -588 
Q 1028 -725 1275 -790 
Q 1522 -856 1778 -856 
Q 2344 -856 2625 -561 
Q 2906 -266 2906 331 
L 2906 616 
Q 2728 306 2450 153 
Q 2172 0 1784 0 
Q 1141 0 747 490 
Q 353 981 353 1791 
Q 353 2603 747 3093 
Q 1141 3584 1784 3584 
Q 2172 3584 2450 3431 
Q 2728 3278 2906 2969 
L 2906 3500 
L 3481 3500 
L 3481 434 
z
" transform="scale(0.015625)"/>
      <path id="DejaVuSans-6d" d="M 3328 2828 
Q 3544 3216 3844 3400 
Q 4144 3584 4550 3584 
Q 5097 3584 5394 3201 
Q 5691 2819 5691 2113 
L 5691 0 
L 5113 0 
L 5113 2094 
Q 5113 2597 4934 2840 
Q 4756 3084 4391 3084 
Q 3944 3084 3684 2787 
Q 3425 2491 3425 1978 
L 3425 0 
L 2847 0 
L 2847 2094 
Q 2847 2600 2669 2842 
Q 2491 3084 2119 3084 
Q 1678 3084 1418 2786 
Q 1159 2488 1159 1978 
L 1159 0 
L 581 0 
L 581 3500 
L 1159 3500 
L 1159 2956 
Q 1356 3278 1631 3431 
Q 1906 3584 2284 3584 
Q 2666 3584 2933 3390 
Q 3200 3197 3328 2828 
z
" transform="scale(0.015625)"/>
      <path id="DejaVuSans-6e" d="M 3513 2113 
L 3513 0 
L 2938 0 
L 2938 2094 
Q 2938 2591 2744 2837 
Q 2550 3084 2163 3084 
Q 1697 3084 1428 2787 
Q 1159 2491 1159 1978 
L 1159 0 
L 581 0 
L 581 3500 
L 1159 3500 
L 1159 2956 
Q 1366 3272 1645 3428 
Q 1925 3584 2291 3584 
Q 2894 3584 3203 3211 
Q 3513 2838 3513 2113 
z
" transform="scale(0.015625)"/>
     </defs>
     <use xlink:href="#DejaVuSans-66"/>
     <use xlink:href="#DejaVuSans-72" transform="translate(35.205078 0)"/>
     <use xlink:href="#DejaVuSans-61" transform="translate(76.318359 0)"/>
     <use xlink:href="#DejaVuSans-67" transform="translate(137.597656 0)"/>
     <use xlink:href="#DejaVuSans-6d" transform="translate(201.074219 0)"/>
     <use xlink:href="#DejaVuSans-65" transform="translate(298.486328 0)"/>
     <use xlink:href="#DejaVuSans-6e" transform="translate(360.009766 0)"/>
     <use xlink:href="#DejaVuSans-74" transform="translate(423.388672 0)"/>
     <use xlink:href="#DejaVuSans-5f" transform="translate(462.597656 0)"/>
     <use xlink:href="#DejaVuSans-72" transform="translate(512.597656 0)"/>
     <use xlink:href="#DejaVuSans-65" transform="translate(551.460938 0)"/>
     <use xlink:href="#DejaVuSans-63" transform="translate(612.984375 0)"/>
     <use xlink:href="#DejaVuSans-6f" transform="translate(667.964844 0)"/>
     <use xlink:href="#DejaVuSans-76" transform="translate(729.146484 0)"/>
     <use xlink:href="#DejaVuSans-65" transform="translate(788.326172 0)"/>
     <use xlink:href="#DejaVuSans-72" transform="translate(849.849609 0)"/>
     <use xlink:href="#DejaVuSans-79" transform="translate(890.962891 0)"/>
    </g>
   </g>
   <g id="text_6">
    <g id="patch_34">
     <path d="M 483.769844 420.731696 
L 596.230156 420.731696 
Q 599.205156 420.731696 599.205156 417.756696 
L 599.205156 409.293883 
Q 599.205156 406.318883 596.230156 406.318883 
L 483.769844 406.318883 
Q 480.794844 406.318883 480.794844 409.293883 
L 480.794844 417.756696 
Q 480.794844 420.731696 483.769844 420.731696 
z
" style="fill: #eef3ff; stroke: #3c6dd9; stroke-width: 1.2; stroke-linejoin: miter"/>
    </g>
    <!-- fragment_recovery_chains -->
    <g transform="translate(483.769844 415.752555) scale(0.085 -0.085)">
     <defs>
      <path id="DejaVuSans-68" d="M 3513 2113 
L 3513 0 
L 2938 0 
L 2938 2094 
Q 2938 2591 2744 2837 
Q 2550 3084 2163 3084 
Q 1697 3084 1428 2787 
Q 1159 2491 1159 1978 
L 1159 0 
L 581 0 
L 581 4863 
L 1159 4863 
L 1159 2956 
Q 1366 3272 1645 3428 
Q 1925 3584 2291 3584 
Q 2894 3584 3203 3211 
Q 3513 2838 3513 2113 
z
" transform="scale(0.015625)"/>
     </defs>
     <use xlink:href="#DejaVuSans-66"/>
     <use xlink:href="#DejaVuSans-72" transform="translate(35.205078 0)"/>
     <use xlink:href="#DejaVuSans-61" transform="translate(76.318359 0)"/>
     <use xlink:href="#DejaVuSans-67" transform="translate(137.597656 0)"/>
     <use xlink:href="#DejaVuSans-6d" transform="translate(201.074219 0)"/>
     <use xlink:href="#DejaVuSans-65" transform="translate(298.486328 0)"/>
     <use xlink:href="#DejaVuSans-6e" transform="translate(360.009766 0)"/>
     <use xlink:href="#DejaVuSans-74" transform="translate(423.388672 0)"/>
     <use xlink:href="#DejaVuSans-5f" transform="translate(462.597656 0)"/>
     <use xlink:href="#DejaVuSans-72" transform="translate(512.597656 0)"/>
     <use xlink:href="#DejaVuSans-65" transform="translate(551.460938 0)"/>
     <use xlink:href="#DejaVuSans-63" transform="translate(612.984375 0)"/>
     <use xlink:href="#DejaVuSans-6f" transform="translate(667.964844 0)"/>
     <use xlink:href="#DejaVuSans-76" transform="translate(729.146484 0)"/>
     <use xlink:href="#DejaVuSans-65" transform="translate(788.326172 0)"/>
     <use xlink:href="#DejaVuSans-72" transform="translate(849.849609 0)"/>
     <use xlink:href="#DejaVuSans-79" transform="translate(890.962891 0)"/>
     <use xlink:href="#DejaVuSans-5f" transform="translate(950.142578 0)"/>
     <use xlink:href="#DejaVuSans-63" transform="translate(1000.142578 0)"/>
     <use xlink:href="#DejaVuSans-68" transform="translate(1055.123047 0)"/>
     <use xlink:href="#DejaVuSans-61" transform="translate(1118.501953 0)"/>
     <use xlink:href="#DejaVuSans-69" transform="translate(1179.78125 0)"/>
     <use xlink:href="#DejaVuSans-6e" transform="translate(1207.564453 0)"/>
     <use xlink:href="#DejaVuSans-73" transform="translate(1270.943359 0)"/>
    </g>
   </g>
   <g id="text_7">
    <g id="patch_35">
     <path d="M 510.256641 479.86558 
L 569.743359 479.86558 
Q 572.718359 479.86558 572.718359 476.89058 
L 572.718359 468.427767 
Q 572.718359 465.452767 569.743359 465.452767 
L 510.256641 465.452767 
Q 507.281641 465.452767 507.281641 468.427767 
L 507.281641 476.89058 
Q 507.281641 479.86558 510.256641 479.86558 
z
" style="fill: #eef3ff; stroke: #3c6dd9; stroke-width: 1.2; stroke-linejoin: miter"/>
    </g>
    <!-- node_hygiene -->
    <g transform="translate(510.256641 474.886439) scale(0.085 -0.085)">
     <use xlink:href="#DejaVuSans-6e"/>
     <use xlink:href="#DejaVuSans-6f" transform="translate(63.378906 0)"/>
     <use xlink:href="#DejaVuSans-64" transform="translate(124.560547 0)"/>
     <use xlink:href="#DejaVuSans-65" transform="translate(188.037109 0)"/>
     <use xlink:href="#DejaVuSans-5f" transform="translate(249.560547 0)"/>
     <use xlink:href="#DejaVuSans-68" transform="translate(299.560547 0)"/>
     <use xlink:href="#DejaVuSans-79" transform="translate(362.939453 0)"/>
     <use xlink:href="#DejaVuSans-67" transform="translate(422.119141 0)"/>
     <use xlink:href="#DejaVuSans-69" transform="translate(485.595703 0)"/>
     <use xlink:href="#DejaVuSans-65" transform="translate(513.378906 0)"/>
     <use xlink:href="#DejaVuSans-6e" transform="translate(574.902344 0)"/>
     <use xlink:href="#DejaVuSans-65" transform="translate(638.28125 0)"/>
    </g>
   </g>
   <g id="text_8">
    <g id="patch_36">
     <path d="M 495.321211 538.999464 
L 584.678789 538.999464 
Q 587.653789 538.999464 587.653789 536.024464 
L 587.653789 527.561652 
Q 587.653789 524.586652 584.678789 524.586652 
L 495.321211 524.586652 
Q 492.346211 524.586652 492.346211 527.561652 
L 492.346211 536.024464 
Q 492.346211 538.999464 495.321211 538.999464 
z
" style="fill: #eef3ff; stroke: #3c6dd9; stroke-width: 1.2; stroke-linejoin: miter"/>
    </g>
    <!-- satellite_connections -->
    <g transform="translate(495.321211 534.020323) scale(0.085 -0.085)">
     <use xlink:href="#DejaVuSans-73"/>
     <use xlink:href="#DejaVuSans-61" transform="translate(52.099609 0)"/>
     <use xlink:href="#DejaVuSans-74" transform="translate(113.378906 0)"/>
     <use xlink:href="#DejaVuSans-65" transform="translate(152.587891 0)"/>
     <use xlink:href="#DejaVuSans-6c" transform="translate(214.111328 0)"/>
     <use xlink:href="#DejaVuSans-6c" transform="translate(241.894531 0)"/>
     <use xlink:href="#DejaVuSans-69" transform="translate(269.677734 0)"/>
     <use xlink:href="#DejaVuSans-74" transform="translate(297.460938 0)"/>
     <use xlink:href="#DejaVuSans-65" transform="translate(336.669922 0)"/>
     <use xlink:href="#DejaVuSans-5f" transform="translate(398.193359 0)"/>
     <use xlink:href="#DejaVuSans-63" transform="translate(448.193359 0)"/>
     <use xlink:href="#DejaVuSans-6f" transform="translate(503.173828 0)"/>
     <use xlink:href="#DejaVuSans-6e" transform="translate(564.355469 0)"/>
     <use xlink:href="#DejaVuSans-6e" transform="translate(627.734375 0)"/>
     <use xlink:href="#DejaVuSans-65" transform="translate(691.113281 0)"/>
     <use xlink:href="#DejaVuSans-63" transform="translate(752.636719 0)"/>
     <use xlink:href="#DejaVuSans-74" transform="translate(807.617188 0)"/>
     <use xlink:href="#DejaVuSans-69" transform="translate(846.826172 0)"/>
     <use xlink:href="#DejaVuSans-6f" transform="translate(874.609375 0)"/>
     <use xlink:href="#DejaVuSans-6e" transform="translate(935.791016 0)"/>
     <use xlink:href="#DejaVuSans-73" transform="translate(999.169922 0)"/>
    </g>
   </g>
   <g id="text_9">
    <g id="patch_37">
     <path d="M 493.957891 598.133348 
L 586.042109 598.133348 
Q 589.017109 598.133348 589.017109 595.158348 
L 589.017109 586.695536 
Q 589.017109 583.720536 586.042109 583.720536 
L 493.957891 583.720536 
Q 490.982891 583.720536 490.982891 586.695536 
L 490.982891 595.158348 
Q 490.982891 598.133348 493.957891 598.133348 
z
" style="fill: #eef3ff; stroke: #3c6dd9; stroke-width: 1.2; stroke-linejoin: miter"/>
    </g>
    <!-- substation_properties -->
    <g transform="translate(493.957891 593.154208) scale(0.085 -0.085)">
     <use xlink:href="#DejaVuSans-73"/>
     <use xlink:href="#DejaVuSans-75" transform="translate(52.099609 0)"/>
     <use xlink:href="#DejaVuSans-62" transform="translate(115.478516 0)"/>
     <use xlink:href="#DejaVuSans-73" transform="translate(178.955078 0)"/>
     <use xlink:href="#DejaVuSans-74" transform="translate(231.054688 0)"/>
     <use xlink:href="#DejaVuSans-61" transform="translate(270.263672 0)"/>
     <use xlink:href="#DejaVuSans-74" transform="translate(331.542969 0)"/>
     <use xlink:href="#DejaVuSans-69" transform="translate(370.751953 0)"/>
     <use xlink:href="#DejaVuSans-6f" transform="translate(398.535156 0)"/>
     <use xlink:href="#DejaVuSans-6e" transform="translate(459.716797 0)"/>
     <use xlink:href="#DejaVuSans-5f" transform="translate(523.095703 0)"/>
     <use xlink:href="#DejaVuSans-70" transform="translate(573.095703 0)"/>
     <use xlink:href="#DejaVuSans-72" transform="translate(636.572266 0)"/>
     <use xlink:href="#DejaVuSans-6f" transform="translate(675.435547 0)"/>
     <use xlink:href="#DejaVuSans-70" transform="translate(736.617188 0)"/>
     <use xlink:href="#DejaVuSans-65" transform="translate(800.09375 0)"/>
     <use xlink:href="#DejaVuSans-72" transform="translate(861.617188 0)"/>
     <use xlink:href="#DejaVuSans-74" transform="translate(902.730469 0)"/>
     <use xlink:href="#DejaVuSans-69" transform="translate(941.939453 0)"/>
     <use xlink:href="#DejaVuSans-65" transform="translate(969.722656 0)"/>
     <use xlink:href="#DejaVuSans-73" transform="translate(1031.246094 0)"/>
    </g>
   </g>
   <g id="text_10">
    <g id="patch_38">
     <path d="M 516.371328 657.267233 
L 563.628672 657.267233 
Q 566.603672 657.267233 566.603672 654.292233 
L 566.603672 645.82942 
Q 566.603672 642.85442 563.628672 642.85442 
L 516.371328 642.85442 
Q 513.396328 642.85442 513.396328 645.82942 
L 513.396328 654.292233 
Q 513.396328 657.267233 516.371328 657.267233 
z
" style="fill: #eef3ff; stroke: #3c6dd9; stroke-width: 1.2; stroke-linejoin: miter"/>
    </g>
    <!-- built_ready -->
    <g transform="translate(516.371328 652.288092) scale(0.085 -0.085)">
     <use xlink:href="#DejaVuSans-62"/>
     <use xlink:href="#DejaVuSans-75" transform="translate(63.476562 0)"/>
     <use xlink:href="#DejaVuSans-69" transform="translate(126.855469 0)"/>
     <use xlink:href="#DejaVuSans-6c" transform="translate(154.638672 0)"/>
     <use xlink:href="#DejaVuSans-74" transform="translate(182.421875 0)"/>
     <use xlink:href="#DejaVuSans-5f" transform="translate(221.630859 0)"/>
     <use xlink:href="#DejaVuSans-72" transform="translate(271.630859 0)"/>
     <use xlink:href="#DejaVuSans-65" transform="translate(310.494141 0)"/>
     <use xlink:href="#DejaVuSans-61" transform="translate(372.017578 0)"/>
     <use xlink:href="#DejaVuSans-64" transform="translate(433.296875 0)"/>
     <use xlink:href="#DejaVuSans-79" transform="translate(496.773438 0)"/>
    </g>
   </g>
   <g id="text_11">
    <g id="patch_39">
     <path d="M 94.987323 716.282914 
L 110.301933 716.282914 
Q 113.276933 716.282914 113.276933 713.307914 
L 113.276933 705.081508 
Q 113.276933 702.106508 110.301933 702.106508 
L 94.987323 702.106508 
Q 92.012323 702.106508 92.012323 705.081508 
L 92.012323 713.307914 
Q 92.012323 716.282914 94.987323 716.282914 
z
" style="fill: #eef3ff; stroke: #3c6dd9; stroke-width: 1.2; stroke-linejoin: miter"/>
    </g>
    <!-- cim -->
    <g transform="translate(94.987323 711.540179) scale(0.085 -0.085)">
     <use xlink:href="#DejaVuSans-63"/>
     <use xlink:href="#DejaVuSans-69" transform="translate(54.980469 0)"/>
     <use xlink:href="#DejaVuSans-6d" transform="translate(82.763672 0)"/>
    </g>
   </g>
   <g id="text_12">
    <g id="patch_40">
     <path d="M 290.756845 716.401117 
L 351.887783 716.401117 
Q 354.862783 716.401117 354.862783 713.426117 
L 354.862783 704.963304 
Q 354.862783 701.988304 351.887783 701.988304 
L 290.756845 701.988304 
Q 287.781845 701.988304 287.781845 704.963304 
L 287.781845 713.426117 
Q 287.781845 716.401117 290.756845 716.401117 
z
" style="fill: #eef3ff; stroke: #3c6dd9; stroke-width: 1.2; stroke-linejoin: miter"/>
    </g>
    <!-- full_powerflow -->
    <g transform="translate(290.756845 711.421976) scale(0.085 -0.085)">
     <defs>
      <path id="DejaVuSans-77" d="M 269 3500 
L 844 3500 
L 1563 769 
L 2278 3500 
L 2956 3500 
L 3675 769 
L 4391 3500 
L 4966 3500 
L 4050 0 
L 3372 0 
L 2619 2869 
L 1863 0 
L 1184 0 
L 269 3500 
z
" transform="scale(0.015625)"/>
     </defs>
     <use xlink:href="#DejaVuSans-66"/>
     <use xlink:href="#DejaVuSans-75" transform="translate(35.205078 0)"/>
     <use xlink:href="#DejaVuSans-6c" transform="translate(98.583984 0)"/>
     <use xlink:href="#DejaVuSans-6c" transform="translate(126.367188 0)"/>
     <use xlink:href="#DejaVuSans-5f" transform="translate(154.150391 0)"/>
     <use xlink:href="#DejaVuSans-70" transform="translate(204.150391 0)"/>
     <use xlink:href="#DejaVuSans-6f" transform="translate(267.626953 0)"/>
     <use xlink:href="#DejaVuSans-77" transform="translate(328.808594 0)"/>
     <use xlink:href="#DejaVuSans-65" transform="translate(410.595703 0)"/>
     <use xlink:href="#DejaVuSans-72" transform="translate(472.119141 0)"/>
     <use xlink:href="#DejaVuSans-66" transform="translate(513.232422 0)"/>
     <use xlink:href="#DejaVuSans-6c" transform="translate(548.4375 0)"/>
     <use xlink:href="#DejaVuSans-6f" transform="translate(576.220703 0)"/>
     <use xlink:href="#DejaVuSans-77" transform="translate(637.402344 0)"/>
    </g>
   </g>
   <g id="text_13">
    <g id="patch_41">
     <path d="M 523.775625 716.401117 
L 556.224375 716.401117 
Q 559.199375 716.401117 559.199375 713.426117 
L 559.199375 704.963304 
Q 559.199375 701.988304 556.224375 701.988304 
L 523.775625 701.988304 
Q 520.800625 701.988304 520.800625 704.963304 
L 520.800625 713.426117 
Q 520.800625 716.401117 523.775625 716.401117 
z
" style="fill: #eef3ff; stroke: #3c6dd9; stroke-width: 1.2; stroke-linejoin: miter"/>
    </g>
    <!-- gen_sld -->
    <g transform="translate(523.775625 711.421976) scale(0.085 -0.085)">
     <use xlink:href="#DejaVuSans-67"/>
     <use xlink:href="#DejaVuSans-65" transform="translate(63.476562 0)"/>
     <use xlink:href="#DejaVuSans-6e" transform="translate(125 0)"/>
     <use xlink:href="#DejaVuSans-5f" transform="translate(188.378906 0)"/>
     <use xlink:href="#DejaVuSans-73" transform="translate(238.378906 0)"/>
     <use xlink:href="#DejaVuSans-6c" transform="translate(290.478516 0)"/>
     <use xlink:href="#DejaVuSans-64" transform="translate(318.261719 0)"/>
    </g>
   </g>
   <g id="text_14">
    <g id="patch_42">
     <path d="M 737.687334 716.401117 
L 779.668038 716.401117 
Q 782.643038 716.401117 782.643038 713.426117 
L 782.643038 704.963304 
Q 782.643038 701.988304 779.668038 701.988304 
L 737.687334 701.988304 
Q 734.712334 701.988304 734.712334 704.963304 
L 734.712334 713.426117 
Q 734.712334 716.401117 737.687334 716.401117 
z
" style="fill: #eef3ff; stroke: #3c6dd9; stroke-width: 1.2; stroke-linejoin: miter"/>
    </g>
    <!-- map_tiers -->
    <g transform="translate(737.687334 711.421976) scale(0.085 -0.085)">
     <use xlink:href="#DejaVuSans-6d"/>
     <use xlink:href="#DejaVuSans-61" transform="translate(97.412109 0)"/>
     <use xlink:href="#DejaVuSans-70" transform="translate(158.691406 0)"/>
     <use xlink:href="#DejaVuSans-5f" transform="translate(222.167969 0)"/>
     <use xlink:href="#DejaVuSans-74" transform="translate(272.167969 0)"/>
     <use xlink:href="#DejaVuSans-69" transform="translate(311.376953 0)"/>
     <use xlink:href="#DejaVuSans-65" transform="translate(339.160156 0)"/>
     <use xlink:href="#DejaVuSans-72" transform="translate(400.683594 0)"/>
     <use xlink:href="#DejaVuSans-73" transform="translate(441.796875 0)"/>
    </g>
   </g>
   <g id="text_15">
    <g id="patch_43">
     <path d="M 948.702403 716.401117 
L 1006.008341 716.401117 
Q 1008.983341 716.401117 1008.983341 713.426117 
L 1008.983341 704.963304 
Q 1008.983341 701.988304 1006.008341 701.988304 
L 948.702403 701.988304 
Q 945.727403 701.988304 945.727403 704.963304 
L 945.727403 713.426117 
Q 945.727403 716.401117 948.702403 716.401117 
z
" style="fill: #eef3ff; stroke: #3c6dd9; stroke-width: 1.2; stroke-linejoin: miter"/>
    </g>
    <!-- subsld_pages -->
    <g transform="translate(948.702403 711.421976) scale(0.085 -0.085)">
     <use xlink:href="#DejaVuSans-73"/>
     <use xlink:href="#DejaVuSans-75" transform="translate(52.099609 0)"/>
     <use xlink:href="#DejaVuSans-62" transform="translate(115.478516 0)"/>
     <use xlink:href="#DejaVuSans-73" transform="translate(178.955078 0)"/>
     <use xlink:href="#DejaVuSans-6c" transform="translate(231.054688 0)"/>
     <use xlink:href="#DejaVuSans-64" transform="translate(258.837891 0)"/>
     <use xlink:href="#DejaVuSans-5f" transform="translate(322.314453 0)"/>
     <use xlink:href="#DejaVuSans-70" transform="translate(372.314453 0)"/>
     <use xlink:href="#DejaVuSans-61" transform="translate(435.791016 0)"/>
     <use xlink:href="#DejaVuSans-67" transform="translate(497.070312 0)"/>
     <use xlink:href="#DejaVuSans-65" transform="translate(560.546875 0)"/>
     <use xlink:href="#DejaVuSans-73" transform="translate(622.070312 0)"/>
    </g>
   </g>
   <g id="text_16">
    <g id="patch_44">
     <path d="M 409.114321 775.416798 
L 452.207993 775.416798 
Q 455.182993 775.416798 455.182993 772.441798 
L 455.182993 764.215392 
Q 455.182993 761.240392 452.207993 761.240392 
L 409.114321 761.240392 
Q 406.139321 761.240392 406.139321 764.215392 
L 406.139321 772.441798 
Q 406.139321 775.416798 409.114321 775.416798 
z
" style="fill: #eef3ff; stroke: #3c6dd9; stroke-width: 1.2; stroke-linejoin: miter"/>
    </g>
    <!-- matpower -->
    <g transform="translate(409.114321 770.674064) scale(0.085 -0.085)">
     <use xlink:href="#DejaVuSans-6d"/>
     <use xlink:href="#DejaVuSans-61" transform="translate(97.412109 0)"/>
     <use xlink:href="#DejaVuSans-74" transform="translate(158.691406 0)"/>
     <use xlink:href="#DejaVuSans-70" transform="translate(197.900391 0)"/>
     <use xlink:href="#DejaVuSans-6f" transform="translate(261.376953 0)"/>
     <use xlink:href="#DejaVuSans-77" transform="translate(322.558594 0)"/>
     <use xlink:href="#DejaVuSans-65" transform="translate(404.345703 0)"/>
     <use xlink:href="#DejaVuSans-72" transform="translate(465.869141 0)"/>
    </g>
   </g>
   <g id="text_17">
    <g id="patch_45">
     <path d="M 627.869702 775.535001 
L 670.807984 775.535001 
Q 673.782984 775.535001 673.782984 772.560001 
L 673.782984 764.097189 
Q 673.782984 761.122189 670.807984 761.122189 
L 627.869702 761.122189 
Q 624.894702 761.122189 624.894702 764.097189 
L 624.894702 772.560001 
Q 624.894702 775.535001 627.869702 775.535001 
z
" style="fill: #eef3ff; stroke: #3c6dd9; stroke-width: 1.2; stroke-linejoin: miter"/>
    </g>
    <!-- static_site -->
    <g transform="translate(627.869702 770.555861) scale(0.085 -0.085)">
     <use xlink:href="#DejaVuSans-73"/>
     <use xlink:href="#DejaVuSans-74" transform="translate(52.099609 0)"/>
     <use xlink:href="#DejaVuSans-61" transform="translate(91.308594 0)"/>
     <use xlink:href="#DejaVuSans-74" transform="translate(152.587891 0)"/>
     <use xlink:href="#DejaVuSans-69" transform="translate(191.796875 0)"/>
     <use xlink:href="#DejaVuSans-63" transform="translate(219.580078 0)"/>
     <use xlink:href="#DejaVuSans-5f" transform="translate(274.560547 0)"/>
     <use xlink:href="#DejaVuSans-73" transform="translate(324.560547 0)"/>
     <use xlink:href="#DejaVuSans-69" transform="translate(376.660156 0)"/>
     <use xlink:href="#DejaVuSans-74" transform="translate(404.443359 0)"/>
     <use xlink:href="#DejaVuSans-65" transform="translate(443.652344 0)"/>
    </g>
   </g>
   <g id="text_18">
    <g id="patch_46">
     <path d="M 503.606719 834.668886 
L 576.393281 834.668886 
Q 579.368281 834.668886 579.368281 831.693886 
L 579.368281 823.231073 
Q 579.368281 820.256073 576.393281 820.256073 
L 503.606719 820.256073 
Q 500.631719 820.256073 500.631719 823.231073 
L 500.631719 831.693886 
Q 500.631719 834.668886 503.606719 834.668886 
z
" style="fill: #eef3ff; stroke: #3c6dd9; stroke-width: 1.2; stroke-linejoin: miter"/>
    </g>
    <!-- capacity_sources -->
    <g transform="translate(503.606719 829.689745) scale(0.085 -0.085)">
     <use xlink:href="#DejaVuSans-63"/>
     <use xlink:href="#DejaVuSans-61" transform="translate(54.980469 0)"/>
     <use xlink:href="#DejaVuSans-70" transform="translate(116.259766 0)"/>
     <use xlink:href="#DejaVuSans-61" transform="translate(179.736328 0)"/>
     <use xlink:href="#DejaVuSans-63" transform="translate(241.015625 0)"/>
     <use xlink:href="#DejaVuSans-69" transform="translate(295.996094 0)"/>
     <use xlink:href="#DejaVuSans-74" transform="translate(323.779297 0)"/>
     <use xlink:href="#DejaVuSans-79" transform="translate(362.988281 0)"/>
     <use xlink:href="#DejaVuSans-5f" transform="translate(422.167969 0)"/>
     <use xlink:href="#DejaVuSans-73" transform="translate(472.167969 0)"/>
     <use xlink:href="#DejaVuSans-6f" transform="translate(524.267578 0)"/>
     <use xlink:href="#DejaVuSans-75" transform="translate(585.449219 0)"/>
     <use xlink:href="#DejaVuSans-72" transform="translate(648.828125 0)"/>
     <use xlink:href="#DejaVuSans-63" transform="translate(687.691406 0)"/>
     <use xlink:href="#DejaVuSans-65" transform="translate(742.671875 0)"/>
     <use xlink:href="#DejaVuSans-73" transform="translate(804.195312 0)"/>
    </g>
   </g>
   <g id="text_19">
    <g id="patch_47">
     <path d="M 512.537695 893.80277 
L 567.462305 893.80277 
Q 570.437305 893.80277 570.437305 890.82777 
L 570.437305 882.364957 
Q 570.437305 879.389957 567.462305 879.389957 
L 512.537695 879.389957 
Q 509.562695 879.389957 509.562695 882.364957 
L 509.562695 890.82777 
Q 509.562695 893.80277 512.537695 893.80277 
z
" style="fill: #eef3ff; stroke: #3c6dd9; stroke-width: 1.2; stroke-linejoin: miter"/>
    </g>
    <!-- pages_editor -->
    <g transform="translate(512.537695 888.823629) scale(0.085 -0.085)">
     <use xlink:href="#DejaVuSans-70"/>
     <use xlink:href="#DejaVuSans-61" transform="translate(63.476562 0)"/>
     <use xlink:href="#DejaVuSans-67" transform="translate(124.755859 0)"/>
     <use xlink:href="#DejaVuSans-65" transform="translate(188.232422 0)"/>
     <use xlink:href="#DejaVuSans-73" transform="translate(249.755859 0)"/>
     <use xlink:href="#DejaVuSans-5f" transform="translate(301.855469 0)"/>
     <use xlink:href="#DejaVuSans-65" transform="translate(351.855469 0)"/>
     <use xlink:href="#DejaVuSans-64" transform="translate(413.378906 0)"/>
     <use xlink:href="#DejaVuSans-69" transform="translate(476.855469 0)"/>
     <use xlink:href="#DejaVuSans-74" transform="translate(504.638672 0)"/>
     <use xlink:href="#DejaVuSans-6f" transform="translate(543.847656 0)"/>
     <use xlink:href="#DejaVuSans-72" transform="translate(605.029297 0)"/>
    </g>
   </g>
   <g id="text_20">
    <g id="patch_48">
     <path d="M 508.986289 952.936654 
L 571.013711 952.936654 
Q 573.988711 952.936654 573.988711 949.961654 
L 573.988711 941.498842 
Q 573.988711 938.523842 571.013711 938.523842 
L 508.986289 938.523842 
Q 506.011289 938.523842 506.011289 941.498842 
L 506.011289 949.961654 
Q 506.011289 952.936654 508.986289 952.936654 
z
" style="fill: #eef3ff; stroke: #3c6dd9; stroke-width: 1.2; stroke-linejoin: miter"/>
    </g>
    <!-- version_stamp -->
    <g transform="translate(508.986289 947.957514) scale(0.085 -0.085)">
     <use xlink:href="#DejaVuSans-76"/>
     <use xlink:href="#DejaVuSans-65" transform="translate(59.179688 0)"/>
     <use xlink:href="#DejaVuSans-72" transform="translate(120.703125 0)"/>
     <use xlink:href="#DejaVuSans-73" transform="translate(161.816406 0)"/>
     <use xlink:href="#DejaVuSans-69" transform="translate(213.916016 0)"/>
     <use xlink:href="#DejaVuSans-6f" transform="translate(241.699219 0)"/>
     <use xlink:href="#DejaVuSans-6e" transform="translate(302.880859 0)"/>
     <use xlink:href="#DejaVuSans-5f" transform="translate(366.259766 0)"/>
     <use xlink:href="#DejaVuSans-73" transform="translate(416.259766 0)"/>
     <use xlink:href="#DejaVuSans-74" transform="translate(468.359375 0)"/>
     <use xlink:href="#DejaVuSans-61" transform="translate(507.568359 0)"/>
     <use xlink:href="#DejaVuSans-6d" transform="translate(568.847656 0)"/>
     <use xlink:href="#DejaVuSans-70" transform="translate(666.259766 0)"/>
    </g>
   </g>
   <g id="text_21">
    <g id="patch_49">
     <path d="M 535.034141 1011.952335 
L 544.965859 1011.952335 
Q 547.940859 1011.952335 547.940859 1008.977335 
L 547.940859 1000.750929 
Q 547.940859 997.775929 544.965859 997.775929 
L 535.034141 997.775929 
Q 532.059141 997.775929 532.059141 1000.750929 
L 532.059141 1008.977335 
Q 532.059141 1011.952335 535.034141 1011.952335 
z
" style="fill: #eef3ff; stroke: #3c6dd9; stroke-width: 1.2; stroke-linejoin: miter"/>
    </g>
    <!-- all -->
    <g transform="translate(535.034141 1007.209601) scale(0.085 -0.085)">
     <use xlink:href="#DejaVuSans-61"/>
     <use xlink:href="#DejaVuSans-6c" transform="translate(61.279297 0)"/>
     <use xlink:href="#DejaVuSans-6c" transform="translate(89.0625 0)"/>
    </g>
   </g>
   <g id="text_22">
    <!-- All-Japan-Grid reproduction DAG (Snakefile rulegraph) -->
    <g transform="translate(405.060156 18.72) scale(0.1 -0.1)">
     <defs>
      <path id="DejaVuSans-41" d="M 2188 4044 
L 1331 1722 
L 3047 1722 
L 2188 4044 
z
M 1831 4666 
L 2547 4666 
L 4325 0 
L 3669 0 
L 3244 1197 
L 1141 1197 
L 716 0 
L 50 0 
L 1831 4666 
z
" transform="scale(0.015625)"/>
      <path id="DejaVuSans-2d" d="M 313 2009 
L 1997 2009 
L 1997 1497 
L 313 1497 
L 313 2009 
z
" transform="scale(0.015625)"/>
      <path id="DejaVuSans-4a" d="M 628 4666 
L 1259 4666 
L 1259 325 
Q 1259 -519 939 -900 
Q 619 -1281 -91 -1281 
L -331 -1281 
L -331 -750 
L -134 -750 
Q 284 -750 456 -515 
Q 628 -281 628 325 
L 628 4666 
z
" transform="scale(0.015625)"/>
      <path id="DejaVuSans-47" d="M 3809 666 
L 3809 1919 
L 2778 1919 
L 2778 2438 
L 4434 2438 
L 4434 434 
Q 4069 175 3628 42 
Q 3188 -91 2688 -91 
Q 1594 -91 976 548 
Q 359 1188 359 2328 
Q 359 3472 976 4111 
Q 1594 4750 2688 4750 
Q 3144 4750 3555 4637 
Q 3966 4525 4313 4306 
L 4313 3634 
Q 3963 3931 3569 4081 
Q 3175 4231 2741 4231 
Q 1884 4231 1454 3753 
Q 1025 3275 1025 2328 
Q 1025 1384 1454 906 
Q 1884 428 2741 428 
Q 3075 428 3337 486 
Q 3600 544 3809 666 
z
" transform="scale(0.015625)"/>
      <path id="DejaVuSans-20" transform="scale(0.015625)"/>
      <path id="DejaVuSans-44" d="M 1259 4147 
L 1259 519 
L 2022 519 
Q 2988 519 3436 956 
Q 3884 1394 3884 2338 
Q 3884 3275 3436 3711 
Q 2988 4147 2022 4147 
L 1259 4147 
z
M 628 4666 
L 1925 4666 
Q 3281 4666 3915 4102 
Q 4550 3538 4550 2338 
Q 4550 1131 3912 565 
Q 3275 0 1925 0 
L 628 0 
L 628 4666 
z
" transform="scale(0.015625)"/>
      <path id="DejaVuSans-28" d="M 1984 4856 
Q 1566 4138 1362 3434 
Q 1159 2731 1159 2009 
Q 1159 1288 1364 580 
Q 1569 -128 1984 -844 
L 1484 -844 
Q 1016 -109 783 600 
Q 550 1309 550 2009 
Q 550 2706 781 3412 
Q 1013 4119 1484 4856 
L 1984 4856 
z
" transform="scale(0.015625)"/>
      <path id="DejaVuSans-53" d="M 3425 4513 
L 3425 3897 
Q 3066 4069 2747 4153 
Q 2428 4238 2131 4238 
Q 1616 4238 1336 4038 
Q 1056 3838 1056 3469 
Q 1056 3159 1242 3001 
Q 1428 2844 1947 2747 
L 2328 2669 
Q 3034 2534 3370 2195 
Q 3706 1856 3706 1288 
Q 3706 609 3251 259 
Q 2797 -91 1919 -91 
Q 1588 -91 1214 -16 
Q 841 59 441 206 
L 441 856 
Q 825 641 1194 531 
Q 1563 422 1919 422 
Q 2459 422 2753 634 
Q 3047 847 3047 1241 
Q 3047 1584 2836 1778 
Q 2625 1972 2144 2069 
L 1759 2144 
Q 1053 2284 737 2584 
Q 422 2884 422 3419 
Q 422 4038 858 4394 
Q 1294 4750 2059 4750 
Q 2388 4750 2728 4690 
Q 3069 4631 3425 4513 
z
" transform="scale(0.015625)"/>
      <path id="DejaVuSans-6b" d="M 581 4863 
L 1159 4863 
L 1159 1991 
L 2875 3500 
L 3609 3500 
L 1753 1863 
L 3688 0 
L 2938 0 
L 1159 1709 
L 1159 0 
L 581 0 
L 581 4863 
z
" transform="scale(0.015625)"/>
      <path id="DejaVuSans-29" d="M 513 4856 
L 1013 4856 
Q 1481 4119 1714 3412 
Q 1947 2706 1947 2009 
Q 1947 1309 1714 600 
Q 1481 -109 1013 -844 
L 513 -844 
Q 928 -128 1133 580 
Q 1338 1288 1338 2009 
Q 1338 2731 1133 3434 
Q 928 4138 513 4856 
z
" transform="scale(0.015625)"/>
     </defs>
     <use xlink:href="#DejaVuSans-41"/>
     <use xlink:href="#DejaVuSans-6c" transform="translate(68.408203 0)"/>
     <use xlink:href="#DejaVuSans-6c" transform="translate(96.191406 0)"/>
     <use xlink:href="#DejaVuSans-2d" transform="translate(123.974609 0)"/>
     <use xlink:href="#DejaVuSans-4a" transform="translate(165.683594 0)"/>
     <use xlink:href="#DejaVuSans-61" transform="translate(195.175781 0)"/>
     <use xlink:href="#DejaVuSans-70" transform="translate(256.455078 0)"/>
     <use xlink:href="#DejaVuSans-61" transform="translate(319.931641 0)"/>
     <use xlink:href="#DejaVuSans-6e" transform="translate(381.210938 0)"/>
     <use xlink:href="#DejaVuSans-2d" transform="translate(444.589844 0)"/>
     <use xlink:href="#DejaVuSans-47" transform="translate(484.298828 0)"/>
     <use xlink:href="#DejaVuSans-72" transform="translate(561.789062 0)"/>
     <use xlink:href="#DejaVuSans-69" transform="translate(602.902344 0)"/>
     <use xlink:href="#DejaVuSans-64" transform="translate(630.685547 0)"/>
     <use xlink:href="#DejaVuSans-20" transform="translate(694.162109 0)"/>
     <use xlink:href="#DejaVuSans-72" transform="translate(725.949219 0)"/>
     <use xlink:href="#DejaVuSans-65" transform="translate(764.8125 0)"/>
     <use xlink:href="#DejaVuSans-70" transform="translate(826.335938 0)"/>
     <use xlink:href="#DejaVuSans-72" transform="translate(889.8125 0)"/>
     <use xlink:href="#DejaVuSans-6f" transform="translate(928.675781 0)"/>
     <use xlink:href="#DejaVuSans-64" transform="translate(989.857422 0)"/>
     <use xlink:href="#DejaVuSans-75" transform="translate(1053.333984 0)"/>
     <use xlink:href="#DejaVuSans-63" transform="translate(1116.712891 0)"/>
     <use xlink:href="#DejaVuSans-74" transform="translate(1171.693359 0)"/>
     <use xlink:href="#DejaVuSans-69" transform="translate(1210.902344 0)"/>
     <use xlink:href="#DejaVuSans-6f" transform="translate(1238.685547 0)"/>
     <use xlink:href="#DejaVuSans-6e" transform="translate(1299.867188 0)"/>
     <use xlink:href="#DejaVuSans-20" transform="translate(1363.246094 0)"/>
     <use xlink:href="#DejaVuSans-44" transform="translate(1395.033203 0)"/>
     <use xlink:href="#DejaVuSans-41" transform="translate(1470.285156 0)"/>
     <use xlink:href="#DejaVuSans-47" transform="translate(1536.943359 0)"/>
     <use xlink:href="#DejaVuSans-20" transform="translate(1614.433594 0)"/>
     <use xlink:href="#DejaVuSans-28" transform="translate(1646.220703 0)"/>
     <use xlink:href="#DejaVuSans-53" transform="translate(1685.234375 0)"/>
     <use xlink:href="#DejaVuSans-6e" transform="translate(1748.710938 0)"/>
     <use xlink:href="#DejaVuSans-61" transform="translate(1812.089844 0)"/>
     <use xlink:href="#DejaVuSans-6b" transform="translate(1873.369141 0)"/>
     <use xlink:href="#DejaVuSans-65" transform="translate(1927.654297 0)"/>
     <use xlink:href="#DejaVuSans-66" transform="translate(1989.177734 0)"/>
     <use xlink:href="#DejaVuSans-69" transform="translate(2024.382812 0)"/>
     <use xlink:href="#DejaVuSans-6c" transform="translate(2052.166016 0)"/>
     <use xlink:href="#DejaVuSans-65" transform="translate(2079.949219 0)"/>
     <use xlink:href="#DejaVuSans-20" transform="translate(2141.472656 0)"/>
     <use xlink:href="#DejaVuSans-72" transform="translate(2173.259766 0)"/>
     <use xlink:href="#DejaVuSans-75" transform="translate(2214.373047 0)"/>
     <use xlink:href="#DejaVuSans-6c" transform="translate(2277.751953 0)"/>
     <use xlink:href="#DejaVuSans-65" transform="translate(2305.535156 0)"/>
     <use xlink:href="#DejaVuSans-67" transform="translate(2367.058594 0)"/>
     <use xlink:href="#DejaVuSans-72" transform="translate(2430.535156 0)"/>
     <use xlink:href="#DejaVuSans-61" transform="translate(2471.648438 0)"/>
     <use xlink:href="#DejaVuSans-70" transform="translate(2532.927734 0)"/>
     <use xlink:href="#DejaVuSans-68" transform="translate(2596.404297 0)"/>
     <use xlink:href="#DejaVuSans-29" transform="translate(2659.783203 0)"/>
    </g>
   </g>
  </g>
 </g>
 <defs>
  <clipPath id="p47f31cc471">
   <rect x="10.8" y="24.72" width="1058.4" height="1073.28"/>
  </clipPath>
 </defs>
</svg>
